<mxfile host="Electron" modified="2024-05-30T21:43:30.840Z" agent="Mozilla/5.0 (Windows NT 10.0; Win64; x64) AppleWebKit/537.36 (KHTML, like Gecko) draw.io/24.2.5 Chrome/120.0.6099.109 Electron/28.1.0 Safari/537.36" etag="cDVZqyD_fj4RgeDfrXM9" version="24.2.5" type="device">
  <diagram name="Page-1" id="dNFfz3cEH-tfwZtjA7qN">
    <mxGraphModel dx="1050" dy="621" grid="1" gridSize="10" guides="1" tooltips="1" connect="1" arrows="1" fold="1" page="1" pageScale="1" pageWidth="1019" pageHeight="1320" math="0" shadow="0">
      <root>
        <mxCell id="0" />
        <mxCell id="1" parent="0" />
        <mxCell id="Uut5k0tsQ1W8NiOQwjTd-15" style="rounded=0;orthogonalLoop=1;jettySize=auto;html=1;exitX=0;exitY=1;exitDx=0;exitDy=0;entryX=1;entryY=0;entryDx=0;entryDy=0;" edge="1" parent="1" source="Uut5k0tsQ1W8NiOQwjTd-2" target="Uut5k0tsQ1W8NiOQwjTd-3">
          <mxGeometry relative="1" as="geometry" />
        </mxCell>
        <mxCell id="Uut5k0tsQ1W8NiOQwjTd-16" style="rounded=0;orthogonalLoop=1;jettySize=auto;html=1;exitX=1;exitY=1;exitDx=0;exitDy=0;entryX=0;entryY=0;entryDx=0;entryDy=0;" edge="1" parent="1" source="Uut5k0tsQ1W8NiOQwjTd-2" target="Uut5k0tsQ1W8NiOQwjTd-4">
          <mxGeometry relative="1" as="geometry" />
        </mxCell>
        <mxCell id="Uut5k0tsQ1W8NiOQwjTd-2" value="&lt;b&gt;&lt;font style=&quot;font-size: 21px;&quot;&gt;*&lt;/font&gt;&lt;/b&gt;" style="ellipse;whiteSpace=wrap;html=1;aspect=fixed;" vertex="1" parent="1">
          <mxGeometry x="380" y="110" width="40" height="40" as="geometry" />
        </mxCell>
        <mxCell id="Uut5k0tsQ1W8NiOQwjTd-18" style="rounded=0;orthogonalLoop=1;jettySize=auto;html=1;exitX=0.5;exitY=1;exitDx=0;exitDy=0;entryX=0.5;entryY=0;entryDx=0;entryDy=0;" edge="1" parent="1" source="Uut5k0tsQ1W8NiOQwjTd-3" target="Uut5k0tsQ1W8NiOQwjTd-6">
          <mxGeometry relative="1" as="geometry" />
        </mxCell>
        <mxCell id="Uut5k0tsQ1W8NiOQwjTd-3" value="&lt;b&gt;&lt;font style=&quot;font-size: 21px;&quot;&gt;+&lt;/font&gt;&lt;/b&gt;" style="ellipse;whiteSpace=wrap;html=1;aspect=fixed;" vertex="1" parent="1">
          <mxGeometry x="330" y="170" width="40" height="40" as="geometry" />
        </mxCell>
        <mxCell id="Uut5k0tsQ1W8NiOQwjTd-21" style="rounded=0;orthogonalLoop=1;jettySize=auto;html=1;exitX=0;exitY=1;exitDx=0;exitDy=0;entryX=0.5;entryY=0;entryDx=0;entryDy=0;" edge="1" parent="1" source="Uut5k0tsQ1W8NiOQwjTd-4" target="Uut5k0tsQ1W8NiOQwjTd-9">
          <mxGeometry relative="1" as="geometry" />
        </mxCell>
        <mxCell id="Uut5k0tsQ1W8NiOQwjTd-24" style="rounded=0;orthogonalLoop=1;jettySize=auto;html=1;exitX=1;exitY=1;exitDx=0;exitDy=0;entryX=0.5;entryY=0;entryDx=0;entryDy=0;" edge="1" parent="1" source="Uut5k0tsQ1W8NiOQwjTd-4" target="Uut5k0tsQ1W8NiOQwjTd-10">
          <mxGeometry relative="1" as="geometry" />
        </mxCell>
        <mxCell id="Uut5k0tsQ1W8NiOQwjTd-4" value="&lt;b&gt;&lt;font style=&quot;font-size: 21px;&quot;&gt;/&lt;/font&gt;&lt;/b&gt;" style="ellipse;whiteSpace=wrap;html=1;aspect=fixed;" vertex="1" parent="1">
          <mxGeometry x="430" y="170" width="40" height="40" as="geometry" />
        </mxCell>
        <mxCell id="Uut5k0tsQ1W8NiOQwjTd-5" value="&lt;b&gt;&lt;font style=&quot;font-size: 21px;&quot;&gt;2&lt;/font&gt;&lt;/b&gt;" style="ellipse;whiteSpace=wrap;html=1;aspect=fixed;" vertex="1" parent="1">
          <mxGeometry x="270" y="240" width="40" height="40" as="geometry" />
        </mxCell>
        <mxCell id="Uut5k0tsQ1W8NiOQwjTd-19" style="rounded=0;orthogonalLoop=1;jettySize=auto;html=1;exitX=0;exitY=1;exitDx=0;exitDy=0;entryX=0.5;entryY=0;entryDx=0;entryDy=0;" edge="1" parent="1" source="Uut5k0tsQ1W8NiOQwjTd-6" target="Uut5k0tsQ1W8NiOQwjTd-7">
          <mxGeometry relative="1" as="geometry" />
        </mxCell>
        <mxCell id="Uut5k0tsQ1W8NiOQwjTd-20" style="rounded=0;orthogonalLoop=1;jettySize=auto;html=1;exitX=1;exitY=1;exitDx=0;exitDy=0;entryX=0.5;entryY=0;entryDx=0;entryDy=0;" edge="1" parent="1" source="Uut5k0tsQ1W8NiOQwjTd-6" target="Uut5k0tsQ1W8NiOQwjTd-8">
          <mxGeometry relative="1" as="geometry" />
        </mxCell>
        <mxCell id="Uut5k0tsQ1W8NiOQwjTd-6" value="&lt;b&gt;&lt;font style=&quot;font-size: 21px;&quot;&gt;-&lt;/font&gt;&lt;/b&gt;" style="ellipse;whiteSpace=wrap;html=1;aspect=fixed;" vertex="1" parent="1">
          <mxGeometry x="350" y="240" width="40" height="40" as="geometry" />
        </mxCell>
        <mxCell id="Uut5k0tsQ1W8NiOQwjTd-7" value="&lt;b&gt;&lt;font style=&quot;font-size: 21px;&quot;&gt;9&lt;/font&gt;&lt;/b&gt;" style="ellipse;whiteSpace=wrap;html=1;aspect=fixed;" vertex="1" parent="1">
          <mxGeometry x="310" y="310" width="40" height="40" as="geometry" />
        </mxCell>
        <mxCell id="Uut5k0tsQ1W8NiOQwjTd-8" value="&lt;b&gt;&lt;font style=&quot;font-size: 21px;&quot;&gt;4&lt;/font&gt;&lt;/b&gt;" style="ellipse;whiteSpace=wrap;html=1;aspect=fixed;" vertex="1" parent="1">
          <mxGeometry x="390" y="310" width="40" height="40" as="geometry" />
        </mxCell>
        <mxCell id="Uut5k0tsQ1W8NiOQwjTd-9" value="&lt;b&gt;&lt;font style=&quot;font-size: 21px;&quot;&gt;8&lt;/font&gt;&lt;/b&gt;" style="ellipse;whiteSpace=wrap;html=1;aspect=fixed;" vertex="1" parent="1">
          <mxGeometry x="410" y="240" width="40" height="40" as="geometry" />
        </mxCell>
        <mxCell id="Uut5k0tsQ1W8NiOQwjTd-25" style="rounded=0;orthogonalLoop=1;jettySize=auto;html=1;exitX=0.5;exitY=1;exitDx=0;exitDy=0;entryX=0.5;entryY=0;entryDx=0;entryDy=0;" edge="1" parent="1" source="Uut5k0tsQ1W8NiOQwjTd-10" target="Uut5k0tsQ1W8NiOQwjTd-11">
          <mxGeometry relative="1" as="geometry" />
        </mxCell>
        <mxCell id="Uut5k0tsQ1W8NiOQwjTd-26" style="rounded=0;orthogonalLoop=1;jettySize=auto;html=1;exitX=1;exitY=1;exitDx=0;exitDy=0;entryX=0.5;entryY=0;entryDx=0;entryDy=0;" edge="1" parent="1" source="Uut5k0tsQ1W8NiOQwjTd-10" target="Uut5k0tsQ1W8NiOQwjTd-14">
          <mxGeometry relative="1" as="geometry" />
        </mxCell>
        <mxCell id="Uut5k0tsQ1W8NiOQwjTd-10" value="&lt;b&gt;&lt;font style=&quot;font-size: 21px;&quot;&gt;-&lt;/font&gt;&lt;/b&gt;" style="ellipse;whiteSpace=wrap;html=1;aspect=fixed;" vertex="1" parent="1">
          <mxGeometry x="490" y="240" width="40" height="40" as="geometry" />
        </mxCell>
        <mxCell id="Uut5k0tsQ1W8NiOQwjTd-11" value="&lt;b&gt;&lt;font style=&quot;font-size: 21px;&quot;&gt;4&lt;/font&gt;&lt;/b&gt;" style="ellipse;whiteSpace=wrap;html=1;aspect=fixed;" vertex="1" parent="1">
          <mxGeometry x="460" y="310" width="40" height="40" as="geometry" />
        </mxCell>
        <mxCell id="Uut5k0tsQ1W8NiOQwjTd-14" value="&lt;b&gt;&lt;font style=&quot;font-size: 21px;&quot;&gt;2&lt;/font&gt;&lt;/b&gt;" style="ellipse;whiteSpace=wrap;html=1;aspect=fixed;" vertex="1" parent="1">
          <mxGeometry x="540" y="310" width="40" height="40" as="geometry" />
        </mxCell>
        <mxCell id="Uut5k0tsQ1W8NiOQwjTd-17" style="rounded=0;orthogonalLoop=1;jettySize=auto;html=1;exitX=0;exitY=1;exitDx=0;exitDy=0;entryX=0.68;entryY=0.08;entryDx=0;entryDy=0;entryPerimeter=0;" edge="1" parent="1" source="Uut5k0tsQ1W8NiOQwjTd-3" target="Uut5k0tsQ1W8NiOQwjTd-5">
          <mxGeometry relative="1" as="geometry" />
        </mxCell>
      </root>
    </mxGraphModel>
  </diagram>
</mxfile>
